<svg version="1.0" xmlns="http://www.w3.org/2000/svg"
 viewBox="0 0 650.000000 650.000000"
 preserveAspectRatio="xMidYMid meet">
<style>
  .logo { fill: #3b5998; }
  @media (prefers-color-scheme: dark) {
    .logo { fill: #6b8fd4; }
  }
</style>
<g transform="translate(0.000000,650.000000) scale(0.100000,-0.100000)" stroke="none">
<path class="logo" d="M2070 3370 l0 -400 100 0 100 0 0 267 c0 255 1 266 18 250 9 -10 100
-129 202 -265 l186 -247 138 -3 138 -3 -36 43 c-20 23 -34 48 -31 56 2 7 1 11
-4 7 -16 -9 -436 539 -426 555 4 6 1 9 -6 8 -6 -2 -35 27 -63 64 l-51 67 -132
0 -133 1 0 -400z"/>
<path class="logo" d="M2640 3675 c0 -117 7 -134 102 -265 40 -56 81 -113 90 -128 17 -26
18 -20 18 191 0 199 2 221 20 257 l20 40 -125 0 -125 0 0 -95z"/>
<path class="logo" d="M3082 3763 c-32 -6 -88 -65 -95 -99 -3 -16 -5 -156 -4 -311 2 -267 3
-283 23 -309 11 -15 33 -37 48 -48 26 -20 42 -21 337 -24 l309 -3 0 86 0 85
-234 0 c-221 0 -235 1 -260 21 l-26 20 0 185 c0 123 4 184 11 184 5 0 8 4 5 9
-11 17 30 39 74 41 25 1 102 1 173 1 l127 -1 0 -107 c0 -89 3 -114 20 -140 35
-58 57 -63 283 -63 192 0 206 -1 231 -21 30 -23 35 -72 12 -105 -13 -17 -29
-19 -160 -22 l-146 -3 0 -85 0 -85 203 3 c224 3 238 7 277 71 17 28 20 51 20
175 0 148 -7 181 -46 213 -13 11 -68 15 -243 19 l-226 5 -3 73 -3 72 261 0
260 0 0 85 0 85 -602 -1 c-332 -1 -613 -4 -626 -6z"/>
</g>
</svg>
