<svg version="1.0" xmlns="http://www.w3.org/2000/svg"
 viewBox="0 0 249.000000 256.000000"
 preserveAspectRatio="xMidYMid meet">
<style>
  .logo { fill: #3b5998; }
  @media (prefers-color-scheme: dark) {
    .logo { fill: #6b8fd4; }
  }
</style>
<g transform="translate(0.000000,256.000000) scale(0.100000,-0.100000)" stroke="none">
<path class="logo" d="M140 1170 l0 -400 100 0 100 0 0 261 c0 199 3 260 12 257 7 -3 98
-119 203 -259 l191 -254 138 -3 138 -3 -36 43 c-20 23 -34 48 -31 56 2 7 1 10
-4 7 -5 -3 -47 43 -93 102 -46 59 -94 122 -108 140 -110 141 -230 303 -230
309 0 4 10 -1 23 -12 l22 -19 -19 22 c-10 12 -23 21 -29 20 -5 -1 -33 28 -61
65 l-51 67 -132 0 -133 1 0 -400z"/>
<path class="logo" d="M710 1470 c0 -118 2 -122 104 -263 39 -54 79 -110 88 -125 17 -26 18
-20 18 188 0 191 3 220 20 258 l19 42 -124 0 -125 0 0 -100z"/>
<path class="logo" d="M1155 1563 c-11 -3 -31 -13 -45 -23 -14 -10 -29 -19 -35 -20 -5 -1
-12 -4 -15 -7 -3 -4 1 -3 8 1 6 4 12 3 12 -1 0 -5 -6 -15 -12 -21 -10 -10 -13
-87 -13 -317 0 -291 1 -305 21 -331 11 -15 33 -37 48 -48 26 -20 42 -21 337
-24 l309 -3 0 86 0 85 -234 0 c-221 0 -235 1 -260 21 l-26 20 0 185 c0 150 3
184 14 184 7 0 20 8 27 18 13 15 12 16 -4 3 -24 -19 -32 -8 -9 12 19 17 66 20
290 18 l72 -1 0 -107 c0 -89 3 -114 20 -140 35 -58 57 -63 283 -63 192 0 206
-1 231 -21 30 -23 35 -72 12 -105 -13 -17 -29 -19 -160 -22 l-146 -3 0 -85 0
-85 208 5 c222 5 243 7 236 17 -2 4 3 13 12 20 37 30 44 65 44 209 0 145 -7
179 -46 211 -13 11 -68 15 -243 19 l-226 5 -3 73 -3 72 261 0 260 0 0 85 0 85
-602 -1 c-332 -1 -612 -4 -623 -6z"/>
</g>
</svg>
